<svg width="55" height="55" viewBox="0 0 55 55" fill="none" xmlns="http://www.w3.org/2000/svg">
<circle cx="27.5" cy="27.5" r="27.5" fill="#009A93"/>
<path fill-rule="evenodd" clip-rule="evenodd" d="M39.2749 15.6781C36.2928 12.6926 32.3269 11.0476 28.1019 11.0459C19.3958 11.0459 12.3103 18.1312 12.3068 26.8396C12.3056 29.6234 13.0329 32.3409 14.4151 34.7362L12.1743 42.9209L20.5475 40.7244C22.8547 41.983 25.4521 42.6462 28.0955 42.647H28.1021C36.8072 42.647 43.8935 35.5611 43.8968 26.8523C43.8985 22.6317 42.2571 18.6635 39.2749 15.6781ZM28.1019 39.9795H28.0964C25.7408 39.9785 23.4306 39.3455 21.4146 38.1496L20.9355 37.8649L15.9667 39.1684L17.2929 34.3239L16.9807 33.8273C15.6665 31.737 14.9725 29.3211 14.9737 26.8406C14.9764 19.6024 20.8658 13.7136 28.1071 13.7136C31.6137 13.7147 34.91 15.082 37.3885 17.5635C39.8671 20.045 41.2313 23.3434 41.2301 26.8513C41.227 34.0901 35.338 39.9795 28.1019 39.9795ZM35.3029 30.1472C34.9084 29.9495 32.968 28.995 32.6061 28.8631C32.2446 28.7314 31.9812 28.6659 31.7184 29.0608C31.4551 29.4557 30.6989 30.3448 30.4686 30.6081C30.2382 30.8715 30.0083 30.9045 29.6135 30.7069C29.2188 30.5094 27.9472 30.0925 26.4397 28.748C25.2665 27.7015 24.4745 26.4091 24.2442 26.0142C24.0142 25.6188 24.2422 25.4258 24.4173 25.2087C24.8446 24.6782 25.2724 24.122 25.4039 23.8587C25.5356 23.5953 25.4696 23.3648 25.3708 23.1673C25.2724 22.9698 24.4831 21.0273 24.1543 20.2368C23.8337 19.4676 23.5086 19.5714 23.2662 19.5594C23.0362 19.5479 22.773 19.5456 22.5098 19.5456C22.2467 19.5456 21.8191 19.6442 21.4572 20.0395C21.0956 20.4347 20.0761 21.3893 20.0761 23.3319C20.0761 25.2745 21.4903 27.1511 21.6876 27.4145C21.8849 27.6779 24.4706 31.6643 28.4295 33.3736C29.3711 33.7806 30.1061 34.0232 30.6795 34.2051C31.625 34.5055 32.4851 34.4631 33.1652 34.3615C33.9236 34.2481 35.5 33.4066 35.8292 32.4849C36.158 31.5629 36.158 30.7728 36.0592 30.6081C35.9607 30.4435 35.6975 30.3448 35.3029 30.1472Z" fill="white"/>
</svg>
