<svg width="20" height="20" viewBox="0 0 20 20" fill="none" xmlns="http://www.w3.org/2000/svg">
<g clip-path="url(#clip0_38_37)">
<path d="M0.781236 10.7813L17.3265 10.7813L14.5857 13.5088C14.2799 13.8131 14.2787 14.3078 14.5831 14.6136C14.8874 14.9195 15.3821 14.9206 15.688 14.6163L19.7701 10.5538C19.7704 10.5535 19.7706 10.5532 19.7708 10.553C20.0759 10.2486 20.0769 9.75239 19.7709 9.447C19.7706 9.44676 19.7705 9.44649 19.7702 9.44626L15.688 5.38376C15.3823 5.07946 14.8876 5.08051 14.5831 5.38641C14.2788 5.69223 14.2799 6.18688 14.5858 6.49126L17.3265 9.21876L0.781236 9.21875C0.349752 9.21875 -1.38439e-05 9.56852 -1.38817e-05 10C-1.39194e-05 10.4315 0.349752 10.7813 0.781236 10.7813Z" fill="#009A93"/>
</g>
<defs>
<clipPath id="clip0_38_37">
<rect width="20" height="20" fill="white" transform="translate(20 20) rotate(-180)"/>
</clipPath>
</defs>
</svg>
