<svg width="100" height="100" viewBox="0 0 100 100" fill="none" xmlns="http://www.w3.org/2000/svg">
<g clip-path="url(#clip0_124_55)">
<path d="M99.2023 81.0441L74.7303 64.7324C74.1123 64.3207 73.3047 64.3326 72.6994 64.7627L60.2667 73.6021C54.311 70.0678 47.6749 64.7559 41.4591 58.5362C35.2378 52.3149 29.9273 45.6805 26.3974 39.7329L35.2368 27.2999C35.6671 26.6946 35.679 25.8868 35.2671 25.269L18.9509 0.797051C18.4581 0.0575992 17.4968 -0.20822 16.6939 0.172052L8.53785 4.03689C8.13531 4.22771 7.81832 4.5615 7.64879 4.97341L0.135128 23.2198C-0.0785429 23.7382 -0.0371367 24.3267 0.247433 24.8097L5.02418 32.9315C5.85094 34.337 6.72867 35.768 7.63375 37.1856C8.16597 38.0194 9.27281 38.2635 10.107 37.7315C10.9406 37.1993 11.1851 36.0919 10.6527 35.2583C9.77124 33.8776 8.91636 32.4837 8.11168 31.1157L3.7859 23.7608L9.66695 9.47965L25.8863 34.2702L22.8101 38.5964C22.4068 39.1635 22.3681 39.9131 22.7118 40.5184C26.3804 46.9834 32.1392 54.2817 38.9259 61.0684C45.7061 67.8531 53.0061 73.6133 59.4809 77.2875C60.0862 77.631 60.836 77.5924 61.403 77.189L65.7293 74.1129L70.4897 77.2275C70.7922 77.4256 71.1323 77.5201 71.4688 77.5201C72.0526 77.5201 72.6254 77.2347 72.9692 76.7094C73.5108 75.8816 73.2785 74.7715 72.451 74.2303L68.8645 71.884L73.7694 68.3967L95.9279 83.1662L93.6049 88.0707L77.5178 77.5457C76.6899 77.0039 75.5799 77.2359 75.0385 78.0638C74.4969 78.8916 74.7289 80.0013 75.5567 80.5429L90.5193 90.3326L76.2389 96.2136L68.8836 91.8835C59.2225 86.2009 49.0899 78.4883 39.5813 69.5791C30.1548 60.7467 21.5152 50.9053 14.5962 41.1192C14.0253 40.3118 12.9085 40.1196 12.0999 40.6909C11.2923 41.2618 11.1003 42.3795 11.6716 43.1872C26.223 63.769 46.9319 83.1277 67.0672 94.9708L75.1893 99.7519C75.4682 99.9162 75.7822 99.9995 76.0979 99.9995C76.3289 99.9995 76.5606 99.9548 76.7797 99.8646L95.026 92.3507C95.4381 92.1812 95.7719 91.8638 95.9627 91.4613L99.8275 83.3013C100.208 82.4978 99.9416 81.5371 99.2023 81.0441ZM11.9285 6.39392L16.8292 4.07166L31.6026 26.23L28.1154 31.1348L11.9285 6.39392Z" fill="#009A93"/>
<path d="M53.7061 27.1016C52.7168 27.1016 51.915 27.9035 51.915 28.8926C51.915 29.8817 52.717 30.6836 53.7061 30.6836C63.3264 30.6836 71.1529 38.5104 71.1529 48.1304C71.1529 49.1195 71.9545 49.9215 72.9439 49.9215C73.9332 49.9215 74.7349 49.1195 74.7349 48.1304C74.7349 36.5352 65.3015 27.1016 53.7061 27.1016Z" fill="#009A93"/>
<path d="M53.7061 12.6768C52.7168 12.6768 51.915 13.4787 51.915 14.4678C51.915 15.4569 52.717 16.2588 53.7061 16.2588C71.2804 16.2588 85.5783 30.5566 85.5783 48.1308C85.5783 49.1199 86.3798 49.9218 87.3693 49.9218C88.3585 49.9218 89.1603 49.1199 89.1603 48.1308C89.1603 28.5815 73.2556 12.6768 53.7061 12.6768Z" fill="#009A93"/>
</g>
<defs>
<clipPath id="clip0_124_55">
<rect width="100" height="100" fill="white"/>
</clipPath>
</defs>
</svg>
