<svg width="100" height="100" viewBox="0 0 100 100" fill="none" xmlns="http://www.w3.org/2000/svg">
<g clip-path="url(#clip0_124_60)">
<path d="M52.0641 56.6501C48.3282 56.6327 44.6166 56.0474 41.0566 54.9142C35.3685 53.0113 31.1437 48.1959 29.9969 42.3086C28.7421 36.2644 31.0289 29.8736 36.2698 24.7752C36.8321 24.2276 37.4164 23.703 38.0228 23.2014C43.3888 18.709 50.6233 17.1477 57.3644 19.0274C63.8907 21.1104 68.4002 27.0747 68.6258 33.9216C68.8701 37.8628 67.5855 41.7465 65.0393 44.7647C63.0754 47.2385 59.8935 48.407 56.7954 47.7921C55.5284 47.5292 54.423 46.7618 53.7336 45.6667C53.1151 44.603 52.9564 43.3333 53.2943 42.1501C54.7518 36.6407 56.2336 28.2682 56.2483 28.1834C56.3518 27.5969 56.7603 27.1102 57.32 26.9065C57.8797 26.7029 58.5055 26.8134 58.9617 27.1963C59.4179 27.5792 59.6351 28.1764 59.5316 28.7629C59.4698 29.1112 58.0106 37.3582 56.5173 43.0021C56.4107 43.3148 56.4374 43.6576 56.5913 43.9501C56.8217 44.269 57.1695 44.4832 57.5579 44.5457C59.4545 44.8623 61.3702 44.1014 62.5328 42.5699C64.5101 40.2043 65.5008 37.1683 65.2994 34.0917C65.1365 28.6417 61.5625 23.8835 56.3738 22.2084C50.7099 20.6506 44.6422 21.9814 40.1503 25.7667C39.6148 26.2112 39.0939 26.6766 38.5943 27.1632C36.0033 29.6836 31.8658 34.9132 33.2599 41.6299C34.1967 46.3224 37.5481 50.168 42.0684 51.7374C49.8851 54.2309 61.1171 54.5311 67.0351 47.1727C67.6165 46.4725 68.6522 46.3682 69.3616 46.9384C70.071 47.5087 70.1917 48.5426 69.6328 49.2609C65.2566 54.7031 58.5973 56.6501 52.0641 56.6501Z" fill="#009A93"/>
<path d="M46.358 48.0087C44.5962 48.039 42.8779 47.4613 41.4923 46.3729C38.2933 43.8127 38.2053 39.3652 39.1021 36.3364C39.4041 35.3277 39.8097 34.353 40.3123 33.4277C41.5628 30.9046 43.5624 28.8295 46.0375 27.4862C49.1197 25.8869 52.8855 26.4934 55.3098 28.9796C56.5125 30.2976 57.4184 31.8584 57.9665 33.5564C58.2567 34.4181 57.8027 35.3534 56.9461 35.6585C56.0896 35.9635 55.1466 35.5258 54.8268 34.6746C54.4316 33.4201 53.7749 32.2637 52.8998 31.2817C51.4864 29.8363 49.2841 29.5075 47.5101 30.4769C45.654 31.5237 44.1623 33.113 43.2351 35.0317C42.8455 35.7506 42.5308 36.5077 42.296 37.2909C41.6483 39.4817 41.7906 42.3409 43.5778 43.7721C45.5316 45.3411 48.8278 44.6777 50.6823 43.0779C52.0643 41.8337 53.2518 40.3891 54.2051 38.7924C54.5138 38.2752 55.0776 37.9647 55.6798 37.9804C56.282 37.9962 56.8288 38.3356 57.1101 38.8682C57.3914 39.4009 57.3633 40.0439 57.0368 40.5501C55.9076 42.4315 54.5019 44.1324 52.8668 45.5956C51.0443 47.1333 48.7424 47.9867 46.358 48.0087V48.0087Z" fill="#009A93"/>
<path d="M95 99.9999H5C2.23983 99.9969 0.00303118 97.7601 0 94.9999V33.3333C2.62e-05 32.687 0.373695 32.0989 0.958805 31.8244C1.54392 31.55 2.23497 31.6385 2.732 32.0516L43.6272 66.0391C47.3275 69.095 52.6762 69.0941 56.3753 66.0368L97.2667 32.0516C97.7637 31.6376 98.4553 31.5486 99.0409 31.8232C99.6265 32.0978 100 32.6864 100 33.3333V94.9999C99.997 97.7601 97.7602 99.9969 95 99.9999V99.9999ZM3.33333 36.8854V94.9999C3.33453 95.9199 4.08002 96.6654 5 96.6666H95C95.9201 96.6658 96.6658 95.9201 96.6667 94.9999V36.8854L58.5035 68.6021C53.5691 72.68 46.4346 72.681 41.499 68.6046L3.33333 36.8854Z" fill="#009A93"/>
<path d="M1.6683 35C0.942348 35.0007 0.299473 34.5314 0.078908 33.8397C-0.141657 33.1481 0.110828 32.3933 0.703131 31.9735L15.7031 21.3402C16.4541 20.8197 17.4842 21.0009 18.0124 21.7465C18.5407 22.492 18.3702 23.5239 17.6301 24.0599L2.63013 34.6932C2.34926 34.8931 2.01303 35.0003 1.6683 35V35Z" fill="#009A93"/>
<path d="M98.3317 35C97.987 35.0003 97.6507 34.8931 97.3699 34.6932L82.3699 24.0599C81.6298 23.5239 81.4593 22.492 81.9875 21.7465C82.5158 21.0009 83.5459 20.8197 84.2968 21.3402L99.2968 31.9735C99.8891 32.3933 100.142 33.1481 99.9211 33.8397C99.7005 34.5314 99.0576 35.0007 98.3317 35V35Z" fill="#009A93"/>
<path d="M65.3988 11.6666C65.0538 11.6668 64.7173 11.5596 64.436 11.3598L56.4693 5.7098C52.7712 2.58478 47.3672 2.55222 43.6317 5.63247L35.565 11.36C35.0792 11.7045 34.4465 11.7637 33.9052 11.5152C33.3639 11.2667 32.9963 10.7484 32.9409 10.1554C32.8854 9.56236 33.1505 8.98483 33.6363 8.6403L41.603 2.9903C46.5257 -1.03476 53.6115 -1.00274 58.4977 3.06664L66.3643 8.63964C66.9571 9.05927 67.2099 9.81448 66.9892 10.5064C66.7685 11.1984 66.1251 11.6678 65.3988 11.6666V11.6666Z" fill="#009A93"/>
<path d="M2.75024 99.1C2.04785 99.1006 1.42047 98.6608 1.18152 98.0003C0.942578 97.3398 1.14336 96.6004 1.68357 96.1515L39.7169 64.5515C40.1739 64.1629 40.8045 64.0499 41.3681 64.2556C41.9316 64.4613 42.3411 64.954 42.4403 65.5457C42.5395 66.1373 42.313 66.7366 41.8474 67.1149L3.81407 98.7149C3.51546 98.9638 3.139 99.1001 2.75024 99.1V99.1Z" fill="#009A93"/>
<path d="M97.2482 99.0999C96.8597 99.1001 96.4835 98.9638 96.1853 98.7149L58.152 67.1149C57.6864 66.7366 57.4599 66.1373 57.5591 65.5457C57.6583 64.954 58.0678 64.4613 58.6313 64.2556C59.1949 64.0499 59.8255 64.1629 60.2825 64.5515L98.3148 96.1515C98.855 96.6005 99.0558 97.3399 98.8169 98.0003C98.5779 98.6608 97.9505 99.1006 97.2482 99.1V99.0999Z" fill="#009A93"/>
<path d="M83.3333 47.4667C82.4129 47.4667 81.6667 46.7205 81.6667 45.8V11.6797C81.6618 11.7147 81.595 11.6675 81.4833 11.6667H18.5167C18.443 11.6622 18.3707 11.6881 18.3167 11.7384L18.3333 45.8C18.3333 46.7205 17.5871 47.4667 16.6667 47.4667C15.7462 47.4667 15 46.7205 15 45.8V11.6667C15.0538 9.77654 16.6263 8.28596 18.5167 8.33338H81.4833C83.3736 8.28615 84.9461 9.77662 85 11.6667V45.8C85 46.7205 84.2538 47.4667 83.3333 47.4667Z" fill="#009A93"/>
</g>
<defs>
<clipPath id="clip0_124_60">
<rect width="100" height="100" fill="white"/>
</clipPath>
</defs>
</svg>
