<svg width="55" height="55" viewBox="0 0 55 55" fill="none" xmlns="http://www.w3.org/2000/svg">
<path d="M53.5 27.5C53.5 41.8594 41.8594 53.5 27.5 53.5C13.1406 53.5 1.5 41.8594 1.5 27.5C1.5 13.1406 13.1406 1.5 27.5 1.5C41.8594 1.5 53.5 13.1406 53.5 27.5Z" fill="#009A93" stroke="#009A93" stroke-width="3"/>
<path d="M34.5 11.5193V16.1607H30.8941C30.4963 16.1607 29.9726 16.2476 29.5354 16.5685C29.0717 16.9089 28.7736 17.4626 28.7736 18.2444V21.6637V22.1637H29.2736H34.4221L33.8696 26.9682H29.2731H28.7731V27.4682V43.5H22.1334V27.4682V26.9682H21.6334H18.5V22.1583H21.6334H22.1334V21.6583V17.8986C22.1334 16.6303 22.4719 15.0311 23.5182 13.7587C24.5489 12.5053 26.3226 11.5002 29.3401 11.5C29.3404 11.5 29.3407 11.5 29.3411 11.5L34.5 11.5193Z" fill="white" stroke="#009A93"/>
</svg>
