<svg width="42" height="42" viewBox="0 0 42 42" fill="none" xmlns="http://www.w3.org/2000/svg">
<g clip-path="url(#clip0_36_73)">
<path d="M25.3579 13.0208C24.9884 12.7587 24.4763 12.8455 24.2142 13.215L24.1983 13.2374C23.9361 13.6069 24.023 14.1189 24.3925 14.3811C24.5366 14.4833 24.7023 14.5325 24.8666 14.5325C25.1234 14.5325 25.3763 14.4123 25.5363 14.1868L25.5522 14.1644C25.8144 13.795 25.7274 13.2829 25.3579 13.0208Z" fill="#009A93"/>
<path d="M23.4895 15.3455C23.2022 14.9952 22.6853 14.9442 22.335 15.2316C21.1954 16.1664 19.9003 16.8318 18.4859 17.2095C18.0482 17.3264 17.788 17.7759 17.9049 18.2137C18.0029 18.5805 18.3344 18.8226 18.6969 18.8226C18.767 18.8226 18.8382 18.8135 18.9091 18.7945C20.5511 18.3561 22.0537 17.5841 23.3754 16.4999C23.7258 16.2127 23.7768 15.6957 23.4895 15.3455Z" fill="#009A93"/>
<path d="M39.5391 18.5776C38.1821 18.5776 37.0781 19.6816 37.0781 21.0385V21.4487C37.0781 24.8889 34.5733 27.7531 31.2921 28.3183C31.7206 27.6862 31.9713 26.9242 31.9713 26.1047V25.5349C31.9713 23.3545 30.1973 21.5807 28.017 21.5807C25.8366 21.5807 24.0627 23.3545 24.0627 25.5349V26.1047C24.0627 26.9034 24.3014 27.6469 24.7102 28.2693C21.5578 27.6011 19.1848 24.7972 19.1848 21.4487V21.0385C19.1848 19.6816 18.0808 18.5776 16.7239 18.5776C15.3669 18.5776 14.2629 19.6816 14.2629 21.0385V21.4487C14.2629 23.1137 14.6017 24.7239 15.2554 26.2115H9.82349H9.6737V17.9503C9.6737 17.5841 9.43105 17.2622 9.07897 17.1617C4.69941 15.9091 1.64062 11.8543 1.64062 7.30078V6.89062C1.64062 6.4383 2.00862 6.07031 2.46094 6.07031C2.91326 6.07031 3.28125 6.4383 3.28125 6.89062V7.30078C3.28125 12.0501 7.14517 15.9141 11.8945 15.9141H15.8424C20.5918 15.9141 24.4557 12.0501 24.4557 7.30078V6.89062C24.4557 6.4383 24.8237 6.07031 25.276 6.07031C25.7284 6.07031 26.0964 6.4383 26.0964 6.89062V7.30078C26.0964 8.56168 25.8692 9.79338 25.4212 10.9614C25.2589 11.3844 25.4703 11.8588 25.8933 12.0211C26.3161 12.1834 26.7908 11.9719 26.953 11.5489C27.4733 10.1926 27.737 8.76332 27.737 7.30078V6.89062C27.737 5.53366 26.633 4.42969 25.276 4.42969C23.9191 4.42969 22.8151 5.53366 22.8151 6.89062V7.30078C22.8151 10.7408 20.3103 13.6051 17.0291 14.1703C17.4576 13.5383 17.7083 12.7764 17.7083 11.957V11.3872C17.7083 9.20678 15.9343 7.43285 13.7539 7.43285C11.5735 7.43285 9.7997 9.20678 9.7997 11.3872V11.957C9.7997 12.7555 10.0384 13.4991 10.4472 14.1214C7.29479 13.4531 4.92188 10.6493 4.92188 7.30078V6.89062C4.92188 5.53366 3.8179 4.42969 2.46094 4.42969C1.10398 4.42969 0 5.53366 0 6.89062V7.30078C0 9.93448 0.846727 12.4317 2.44855 14.5222C3.8713 16.379 5.83718 17.7932 8.03316 18.5514V27.0318C8.03316 27.4847 8.40041 27.8521 8.85347 27.8521H9.00326V41.1797C9.00326 41.6327 9.37051 42 9.82357 42C10.2766 42 10.6439 41.6327 10.6439 41.1797V27.8521H16.1367C16.316 28.1309 16.5076 28.4038 16.7116 28.6701C16.7659 28.741 16.8224 28.8099 16.8783 28.8794V41.1797C16.8783 41.6327 17.2455 42 17.6986 42C18.1516 42 18.5189 41.6327 18.5189 41.1797V30.5558C19.6366 31.4925 20.9212 32.2245 22.2962 32.6993V41.1797C22.2962 41.6327 22.6634 42 23.1165 42C23.5695 42 23.9368 41.6327 23.9368 41.1797V32.0982C23.9368 31.732 23.6942 31.4101 23.3421 31.3095C18.9624 30.057 15.9036 26.0022 15.9036 21.4487V21.0385C15.9036 20.5862 16.2716 20.2182 16.724 20.2182C17.1763 20.2182 17.5443 20.5862 17.5443 21.0385V21.4487C17.5443 26.1981 21.4082 30.062 26.1575 30.062H30.1055C34.8548 30.062 38.7188 26.1981 38.7188 21.4487V21.0385C38.7188 20.5862 39.0867 20.2182 39.5391 20.2182C39.9914 20.2182 40.3594 20.5862 40.3594 21.0385V21.4487C40.3594 26.0863 37.2297 30.1608 32.7487 31.3573C32.3897 31.4532 32.14 31.7783 32.14 32.1499V38.0898C32.14 38.5428 32.5073 38.9101 32.9603 38.9101C33.4134 38.9101 33.7806 38.5428 33.7806 38.0898V32.7625C38.6512 31.1802 42 26.6158 42 21.4487V21.0385C42 19.6816 40.896 18.5776 39.5391 18.5776ZM11.4403 11.3871C11.4403 10.1113 12.4782 9.07339 13.7539 9.07339C15.0297 9.07339 16.0676 10.1113 16.0676 11.3871V11.9569C16.0676 13.2326 15.0298 14.2705 13.7539 14.2705C12.4782 14.2705 11.4403 13.2326 11.4403 11.9569V11.3871ZM30.3306 26.1047C30.3306 27.3805 29.2928 28.4183 28.017 28.4183C26.7412 28.4183 25.7033 27.3805 25.7033 26.1047V25.5349C25.7033 24.2592 26.7412 23.2213 28.017 23.2213C29.2927 23.2213 30.3306 24.2592 30.3306 25.5349V26.1047Z" fill="#009A93"/>
<path d="M33.5404 40.5997C33.3878 40.4471 33.1762 40.3594 32.9604 40.3594C32.7447 40.3594 32.5331 40.4471 32.3805 40.5997C32.2279 40.7523 32.1401 40.9639 32.1401 41.1797C32.1401 41.3954 32.2279 41.6071 32.3805 41.7596C32.5331 41.9121 32.7447 42 32.9604 42C33.1762 42 33.3878 41.9122 33.5404 41.7596C33.693 41.6071 33.7808 41.3954 33.7808 41.1797C33.7808 40.9639 33.693 40.7523 33.5404 40.5997Z" fill="#009A93"/>
<path d="M13.7539 30.6797C13.3008 30.6797 12.9336 31.047 12.9336 31.5V41.1797C12.9336 41.6327 13.3008 42 13.7539 42C14.207 42 14.5742 41.6327 14.5742 41.1797V31.5C14.5742 31.047 14.207 30.6797 13.7539 30.6797Z" fill="#009A93"/>
<path d="M38.2266 6.72656C37.7735 6.72656 37.4062 7.0939 37.4062 7.54688V8.56652C37.4062 9.0195 37.7735 9.38684 38.2266 9.38684C38.6796 9.38684 39.0469 9.0195 39.0469 8.56652V7.54688C39.0469 7.0939 38.6796 6.72656 38.2266 6.72656Z" fill="#009A93"/>
<path d="M38.2266 11.6132C37.7735 11.6132 37.4062 11.9805 37.4062 12.4335V13.4531C37.4062 13.9061 37.7735 14.2734 38.2266 14.2734C38.6796 14.2734 39.0469 13.9061 39.0469 13.4531V12.4335C39.0469 11.9805 38.6796 11.6132 38.2266 11.6132Z" fill="#009A93"/>
<path d="M41.1798 9.67969H40.1602C39.7071 9.67969 39.3398 10.047 39.3398 10.5C39.3398 10.953 39.7071 11.3203 40.1602 11.3203H41.1798C41.6329 11.3203 42.0001 10.953 42.0001 10.5C42.0001 10.047 41.6329 9.67969 41.1798 9.67969Z" fill="#009A93"/>
<path d="M36.2931 9.67969H35.2734C34.8204 9.67969 34.4531 10.047 34.4531 10.5C34.4531 10.953 34.8204 11.3203 35.2734 11.3203H36.2931C36.7461 11.3203 37.1134 10.953 37.1134 10.5C37.1134 10.047 36.7461 9.67969 36.2931 9.67969Z" fill="#009A93"/>
<path d="M18.0366 0C17.5836 0 17.2163 0.367336 17.2163 0.820312V1.83996C17.2163 2.29294 17.5836 2.66027 18.0366 2.66027C18.4897 2.66027 18.8569 2.29294 18.8569 1.83996V0.820312C18.8569 0.367336 18.4897 0 18.0366 0Z" fill="#009A93"/>
<path d="M18.0366 4.8866C17.5836 4.8866 17.2163 5.25393 17.2163 5.70691V6.72656C17.2163 7.17953 17.5836 7.54687 18.0366 7.54687C18.4897 7.54687 18.8569 7.17953 18.8569 6.72656V5.70691C18.8569 5.25393 18.4897 4.8866 18.0366 4.8866Z" fill="#009A93"/>
<path d="M20.9899 2.95312H19.9702C19.5172 2.95312 19.1499 3.32046 19.1499 3.77344C19.1499 4.22641 19.5172 4.59375 19.9702 4.59375H20.9899C21.4429 4.59375 21.8102 4.22641 21.8102 3.77344C21.8102 3.32046 21.4429 2.95312 20.9899 2.95312Z" fill="#009A93"/>
<path d="M16.1031 2.95312H15.0835C14.6304 2.95312 14.2632 3.32046 14.2632 3.77344C14.2632 4.22641 14.6304 4.59375 15.0835 4.59375H16.1031C16.5562 4.59375 16.9235 4.22641 16.9235 3.77344C16.9235 3.32046 16.5562 2.95312 16.1031 2.95312Z" fill="#009A93"/>
</g>
<defs>
<clipPath id="clip0_36_73">
<rect width="42" height="42" fill="white"/>
</clipPath>
</defs>
</svg>
