<svg width="55" height="55" viewBox="0 0 55 55" fill="none" xmlns="http://www.w3.org/2000/svg">
<circle cx="27.5" cy="27.5" r="27.5" fill="#009A93"/>
<g clip-path="url(#clip0_49_8)">
<path d="M41.9719 21.5261C41.904 19.9852 41.6548 18.9259 41.2979 18.0079C40.9296 17.0336 40.3631 16.1612 39.6209 15.436C38.8957 14.6996 38.0176 14.1273 37.0545 13.7648C36.1313 13.4078 35.0775 13.1587 33.5366 13.0907C31.9842 13.017 31.4914 13 27.5541 13C23.6168 13 23.124 13.017 21.5773 13.085C20.0365 13.1529 18.9771 13.4023 18.0594 13.759C17.0848 14.1273 16.2125 14.6938 15.4873 15.436C14.7508 16.1612 14.1788 17.0393 13.8161 18.0024C13.4591 18.9259 13.2099 19.9794 13.142 21.5203C13.0683 23.0727 13.0513 23.5655 13.0513 27.5028C13.0513 31.4401 13.0683 31.933 13.1362 33.4796C13.2042 35.0205 13.4536 36.0798 13.8105 36.9977C14.1788 37.9721 14.7508 38.8445 15.4873 39.5696C16.2125 40.3061 17.0906 40.8784 18.0537 41.2409C18.9771 41.5978 20.0307 41.847 21.5718 41.9149C23.1182 41.9831 23.6113 41.9999 27.5486 41.9999C31.4859 41.9999 31.9787 41.9831 33.5253 41.9149C35.0662 41.847 36.1255 41.5978 37.0433 41.2409C38.9922 40.4874 40.5331 38.9465 41.2866 36.9977C41.6433 36.0743 41.8927 35.0205 41.9607 33.4796C42.0286 31.933 42.0456 31.4401 42.0456 27.5028C42.0456 23.5655 42.0399 23.0727 41.9719 21.5261ZM39.3604 33.3663C39.298 34.7826 39.0601 35.5474 38.8619 36.0572C38.3746 37.3206 37.3719 38.3233 36.1085 38.8106C35.5986 39.0089 34.8283 39.2468 33.4175 39.309C31.888 39.3771 31.4292 39.3939 27.5599 39.3939C23.6905 39.3939 23.226 39.3771 21.7019 39.309C20.2856 39.2468 19.5208 39.0089 19.011 38.8106C18.3823 38.5782 17.81 38.21 17.3455 37.7285C16.864 37.2582 16.4957 36.6917 16.2634 36.063C16.0651 35.5531 15.8272 34.7826 15.765 33.372C15.6969 31.8424 15.68 31.3835 15.68 27.5141C15.68 23.6448 15.6969 23.1803 15.765 21.6564C15.8272 20.2401 16.0651 19.4753 16.2634 18.9655C16.4957 18.3365 16.864 17.7645 17.3513 17.2998C17.8213 16.8182 18.3878 16.45 19.0167 16.2179C19.5266 16.0196 20.2972 15.7817 21.7077 15.7193C23.2373 15.6513 23.6963 15.6343 27.5654 15.6343C31.4405 15.6343 31.8992 15.6513 33.4233 15.7193C34.8396 15.7817 35.6044 16.0196 36.1143 16.2179C36.743 16.45 37.3152 16.8182 37.7797 17.2998C38.2613 17.77 38.6295 18.3365 38.8619 18.9655C39.0601 19.4753 39.298 20.2457 39.3604 21.6564C39.4284 23.186 39.4454 23.6448 39.4454 27.5141C39.4454 31.3835 39.4284 31.8367 39.3604 33.3663Z" fill="white"/>
<path d="M27.5537 20.0531C23.4409 20.0531 20.104 23.3898 20.104 27.5028C20.104 31.6158 23.4409 34.9525 27.5537 34.9525C31.6667 34.9525 35.0034 31.6158 35.0034 27.5028C35.0034 23.3898 31.6667 20.0531 27.5537 20.0531ZM27.5537 32.3352C24.8855 32.3352 22.7213 30.1712 22.7213 27.5028C22.7213 24.8344 24.8855 22.6704 27.5537 22.6704C30.2221 22.6704 32.3861 24.8344 32.3861 27.5028C32.3861 30.1712 30.2221 32.3352 27.5537 32.3352Z" fill="white"/>
<path d="M37.0376 19.7586C37.0376 20.719 36.2589 21.4977 35.2982 21.4977C34.3378 21.4977 33.5591 20.719 33.5591 19.7586C33.5591 18.7979 34.3378 18.0194 35.2982 18.0194C36.2589 18.0194 37.0376 18.7979 37.0376 19.7586Z" fill="white"/>
</g>
<defs>
<clipPath id="clip0_49_8">
<rect width="29" height="29" fill="white" transform="translate(13 13)"/>
</clipPath>
</defs>
</svg>
