<svg width="573" height="574" viewBox="0 0 573 574" fill="none" xmlns="http://www.w3.org/2000/svg">
<g clip-path="url(#clip0_40_86)">
<path d="M492.306 422.994C471.47 374.53 436.293 326.594 387.069 305.932C381.45 303.591 375.07 301.835 368.514 300.372C355.404 319.921 340.361 335.783 322.744 348.777C307.585 359.897 291.722 368.618 275.393 375.467C280.075 378.745 284.991 381.73 290.143 384.422C310.628 395.133 332.811 404.557 354.409 414.683C334.099 409.181 310.804 407.132 291.372 400.05C279.256 395.601 268.077 389.455 257.658 382.139C226.578 392.734 194.093 397.826 161.668 401.688C187.948 445.352 244.021 480.412 286.28 496.274C330.412 512.838 380.397 514.887 429.504 519.978C459.588 523.081 492.307 534.318 516.246 547.429C521.689 550.414 527.484 545.439 525.611 539.41C513.846 501.776 507.876 459.166 492.306 422.994Z" fill="#009A93" fill-opacity="0.18"/>
<path d="M-26.5671 428.73C28.8033 398.645 92.3089 394.958 154.526 387.817C184.903 384.305 214.988 379.975 243.61 371.311C249.814 369.439 256.018 367.331 262.106 364.99C280.192 358.084 297.634 349.011 314.081 336.896C329.533 325.541 342.176 312.079 352.828 297.27C369.802 273.625 381.625 246.408 391.341 218.137C409.076 166.806 417.212 112.256 415.631 57.9976C414.988 35.9901 414.636 13.1047 409.193 -8.37602C407.964 -13.117 406.793 -19.145 403.106 -22.6569C398.306 -27.2808 389.702 -22.5398 391.634 -15.8088C405.564 31.6594 396.902 87.1458 377.645 132.507C355.521 184.658 312.793 215.679 260.584 234.584C246.712 239.618 232.547 244.008 218.149 248.163C217.857 248.28 217.564 248.28 217.272 248.28C214.404 248.28 213.174 244.066 216.159 242.719C233.133 235.052 249.99 227.326 266.028 218.956C344.576 177.985 378.875 82.5798 349.434 82.5798C347.034 82.5798 344.225 83.2237 341.006 84.5699C295.586 103.358 241.621 103.533 191.694 112.781C174.135 116 157.044 120.39 141.006 127.062C77.3251 153.635 31.7884 205.61 4.68937 268.121C-15.5036 314.77 -23.3467 369.847 -38.6232 418.311C-40.6132 424.515 -36.2234 429.841 -30.8386 429.841C-29.4936 429.901 -28.0304 429.549 -26.5671 428.73Z" fill="#009A93" fill-opacity="0.18"/>
</g>
<defs>
<clipPath id="clip0_40_86">
<rect width="572.822" height="572.822" fill="white" transform="translate(572.822 573.137) rotate(180)"/>
</clipPath>
</defs>
</svg>
