<svg width="55" height="55" viewBox="0 0 55 55" fill="none" xmlns="http://www.w3.org/2000/svg">
<circle cx="27.5" cy="27.5" r="27.5" fill="#009A93"/>
<g clip-path="url(#clip0_49_43)">
<path d="M40.5641 18.6667H15.4359C14.6461 18.6667 14 19.3129 14 20.1026V35.8975C14 36.6872 14.6461 37.3335 15.4359 37.3335H40.5641C41.3538 37.3335 42.0001 36.6873 42.0001 35.8975V20.1026C42 19.3129 41.3539 18.6667 40.5641 18.6667ZM40.0252 19.7436L28.826 28.1437C28.6246 28.2969 28.3155 28.3928 27.9999 28.3914C27.6844 28.3928 27.3754 28.2969 27.1739 28.1437L15.9747 19.7436H40.0252ZM34.043 28.698L40.1455 36.2365C40.1517 36.244 40.1592 36.2498 40.1657 36.2566H15.8343C15.8408 36.2494 15.8483 36.244 15.8545 36.2365L21.957 28.698C22.144 28.4668 22.1086 28.1279 21.877 27.9405C21.6458 27.7535 21.3069 27.789 21.1199 28.0202L15.0769 35.4851V20.4167L26.5281 29.0051C26.9586 29.3257 27.4823 29.4668 27.9999 29.4682C28.5168 29.4671 29.0409 29.3261 29.4716 29.0051L40.9229 20.4167V35.485L34.8801 28.0202C34.693 27.789 34.3538 27.7535 34.123 27.9405C33.8914 28.1275 33.8559 28.4668 34.043 28.698Z" fill="white"/>
</g>
<defs>
<clipPath id="clip0_49_43">
<rect width="28" height="28" fill="white" transform="translate(14 14)"/>
</clipPath>
</defs>
</svg>
