<svg width="55" height="55" viewBox="0 0 55 55" fill="none" xmlns="http://www.w3.org/2000/svg">
<circle cx="27.5" cy="27.5" r="27.5" fill="#009A93"/>
<g clip-path="url(#clip0_49_54)">
<path d="M42.1364 35.4896L37.8004 31.1518C37.2181 30.5724 36.4383 30.2533 35.6051 30.2533C34.738 30.2533 33.9193 30.5947 33.3002 31.2141L31.6124 32.9015C30.3008 32.1725 28.5576 31.1699 26.7478 29.3601C24.9401 27.5517 23.9373 25.8136 23.2046 24.495L24.8941 22.8068C26.1501 21.5481 26.1758 19.5288 24.9515 18.3056L20.6164 13.9704C20.0357 13.3881 19.2559 13.0674 18.4206 13.0674C17.5728 13.0674 16.7709 13.3938 16.1554 13.9879C15.7831 14.2877 13.9147 15.9371 13.2183 19.3386C12.2434 24.0996 14.4835 28.6805 20.9504 35.15C28.1744 42.3718 34.3416 42.9331 36.0597 42.9331C36.4174 42.9331 36.6332 42.911 36.6908 42.9043C40.0599 42.5094 41.2662 41.0132 42.1469 39.9207C43.2882 38.5048 43.2843 36.6417 42.1364 35.4896ZM40.6976 38.7522C39.8697 39.7791 39.0879 40.7488 36.4742 41.0553C36.4728 41.0554 36.3299 41.0714 36.0597 41.0714C34.5225 41.0714 28.9847 40.5494 22.2667 33.8336C16.3031 27.8674 14.2099 23.7761 15.0421 19.7119C15.6494 16.745 17.2619 15.484 17.3246 15.4361L17.3802 15.395L17.429 15.3461C17.6982 15.0771 18.0503 14.929 18.4205 14.929C18.7575 14.929 19.0693 15.0553 19.2991 15.2859L23.6353 19.6221C24.1342 20.1205 24.1076 20.9592 23.5768 21.4912L21.6662 23.4002L21.6348 23.433C21.1369 23.9815 21.1955 24.7226 21.4697 25.2053C22.2612 26.6335 23.3452 28.5895 25.4312 30.6761C27.5102 32.7551 29.4634 33.8383 30.8876 34.6282C31.0302 34.7083 31.3246 34.8425 31.693 34.8425C32.1282 34.8425 32.5277 34.6584 32.8234 34.3227L34.6165 32.5301C34.8842 32.2623 35.2351 32.1147 35.6049 32.1147C35.9427 32.1147 36.256 32.2414 36.4854 32.4695L40.8185 36.8045C41.3689 37.3569 41.1417 38.2015 40.6976 38.7522Z" fill="white"/>
<path d="M31.175 17.6283C32.7744 17.8123 34.6575 18.7811 35.9726 20.0962C37.2999 21.4235 38.271 23.3258 38.4463 24.9425C38.4981 25.4195 38.9014 25.7729 39.3706 25.7729C39.4041 25.7729 39.4381 25.7711 39.4721 25.7675C39.9831 25.712 40.3525 25.2528 40.297 24.7417C40.0752 22.6981 38.9225 20.4137 37.2889 18.78C35.6706 17.1615 33.4095 16.0117 31.3879 15.779C30.8774 15.7198 30.4156 16.0866 30.3568 16.5972C30.298 17.1078 30.6642 17.5694 31.175 17.6283Z" fill="white"/>
<path d="M30.3055 21.5276C31.1705 21.6273 32.3676 22.2689 33.1518 23.0531C33.9428 23.8442 34.5856 25.0527 34.6803 25.927C34.7321 26.4041 35.1354 26.7575 35.6045 26.7575C35.638 26.7575 35.6719 26.7557 35.7059 26.7521C36.217 26.6966 36.5865 26.2374 36.531 25.7263C36.3691 24.2336 35.3782 22.6469 34.468 21.7367C33.566 20.8346 31.9948 19.8483 30.5183 19.6782C30.0071 19.6187 29.546 19.9857 29.4871 20.4963C29.4284 21.007 29.7948 21.4688 30.3055 21.5276Z" fill="white"/>
</g>
<defs>
<clipPath id="clip0_49_54">
<rect width="30" height="30" fill="white" transform="translate(13 13)"/>
</clipPath>
</defs>
</svg>
