<svg width="23" height="23" viewBox="0 0 23 23" fill="none" xmlns="http://www.w3.org/2000/svg">
<g clip-path="url(#clip0_177_174)">
<path d="M22.3379 17.242L19.0136 13.9163C18.5672 13.4721 17.9694 13.2274 17.3305 13.2274C16.6658 13.2274 16.0381 13.4892 15.5635 13.964L14.2695 15.2578C13.2639 14.6989 11.9275 13.9302 10.54 12.5426C9.15405 11.1562 8.38525 9.8237 7.8235 8.81276L9.11875 7.51846C10.0817 6.55348 10.1014 5.00533 9.1628 4.06756L5.8392 0.743868C5.39401 0.297436 4.79619 0.0515747 4.15576 0.0515747C3.5058 0.0515747 2.89096 0.301813 2.41912 0.757284C2.13368 0.98716 0.701236 2.25167 0.167363 4.85947C-0.580116 8.50961 1.1373 12.0216 6.09524 16.9815C11.6337 22.5183 16.3619 22.9486 17.6791 22.9486C17.9533 22.9486 18.1187 22.9317 18.1629 22.9265C20.7459 22.6238 21.6707 21.4767 22.346 20.6391C23.2209 19.5536 23.2179 18.1252 22.3379 17.242ZM21.2348 19.7433C20.6001 20.5305 20.0007 21.274 17.9969 21.5089C17.9958 21.509 17.8862 21.5213 17.6791 21.5213C16.5006 21.5213 12.2549 21.1211 7.10447 15.9723C2.53235 11.3983 0.927592 8.26157 1.56556 5.14568C2.03121 2.87108 3.26746 1.90429 3.31551 1.86756L3.35813 1.83607L3.39553 1.79858C3.6019 1.59239 3.87184 1.47879 4.15566 1.47879C4.41408 1.47879 4.65309 1.57565 4.82931 1.75243L8.15367 5.07688C8.53616 5.459 8.5158 6.102 8.10885 6.50981L6.64405 7.97336L6.61998 7.99858C6.23825 8.41903 6.28316 8.98726 6.49344 9.35728C7.10019 10.4522 7.93131 11.9519 9.53055 13.5516C11.1245 15.1455 12.6219 15.9759 13.7138 16.5815C13.8231 16.6429 14.0488 16.7459 14.3313 16.7459C14.6649 16.7459 14.9712 16.6047 15.1979 16.3473L16.5726 14.973C16.7778 14.7677 17.0469 14.6545 17.3304 14.6545C17.5893 14.6545 17.8296 14.7517 18.0054 14.9266L21.3275 18.2501C21.7495 18.6736 21.5753 19.321 21.2348 19.7433Z" fill="white"/>
<path d="M13.9341 3.5483C15.1602 3.6894 16.604 4.43212 17.6122 5.4404C18.6298 6.458 19.3743 7.91642 19.5088 9.15591C19.5484 9.52156 19.8577 9.79254 20.2173 9.79254C20.243 9.79254 20.2691 9.79112 20.2951 9.78836C20.687 9.74583 20.9701 9.39378 20.9276 9.00196C20.7576 7.43517 19.8738 5.68379 18.6214 4.43127C17.3807 3.19045 15.6472 2.30891 14.0972 2.13051C13.7059 2.08512 13.3519 2.36638 13.3068 2.75781C13.2617 3.14925 13.5424 3.5032 13.9341 3.5483Z" fill="white"/>
<path d="M13.2674 6.53769C13.9305 6.61409 14.8483 7.106 15.4496 7.70724C16.0559 8.31371 16.5488 9.24026 16.6214 9.91057C16.6611 10.2763 16.9703 10.5473 17.33 10.5473C17.3557 10.5473 17.3816 10.5459 17.4077 10.5431C17.7995 10.5006 18.0828 10.1485 18.0402 9.75672C17.9162 8.61228 17.1564 7.39582 16.4586 6.69801C15.7671 6.00639 14.5625 5.25025 13.4305 5.1198C13.0386 5.07423 12.6851 5.35558 12.64 5.74701C12.595 6.13855 12.8758 6.49259 13.2674 6.53769Z" fill="white"/>
</g>
<defs>
<clipPath id="clip0_177_174">
<rect width="23" height="23" fill="white"/>
</clipPath>
</defs>
</svg>
