<svg width="25" height="25" viewBox="0 0 25 25" fill="none" xmlns="http://www.w3.org/2000/svg">
<path d="M12.5 0C7.40764 0 3.26488 4.14276 3.26488 9.23512C3.26488 10.9116 4.01672 12.7146 4.04823 12.7906C4.29106 13.367 4.7702 14.2623 5.1157 14.787L11.4477 24.3812C11.7069 24.7746 12.0904 25 12.5 25C12.9096 25 13.2931 24.7746 13.5523 24.3818L19.8848 14.787C20.2309 14.2623 20.7095 13.367 20.9523 12.7906C20.9838 12.7151 21.7351 10.9121 21.7351 9.23512C21.7351 4.14276 17.5923 0 12.5 0ZM19.9506 12.3691C19.7338 12.8857 19.2878 13.7185 18.9776 14.1889L12.645 23.7837C12.5201 23.9733 12.4804 23.9733 12.3555 23.7837L6.02292 14.1889C5.71273 13.7185 5.26672 12.8852 5.04997 12.3685C5.04074 12.3463 4.35136 10.6867 4.35136 9.23512C4.35136 4.74196 8.00684 1.08648 12.5 1.08648C16.9931 1.08648 20.6486 4.74196 20.6486 9.23512C20.6486 10.6888 19.9576 12.3528 19.9506 12.3691Z" fill="white"/>
<path d="M12.5 4.34647C9.80389 4.34647 7.61082 6.54008 7.61082 9.23565C7.61082 11.9312 9.80389 14.1248 12.5 14.1248C15.1961 14.1248 17.3892 11.9312 17.3892 9.23565C17.3892 6.54008 15.1961 4.34647 12.5 4.34647ZM12.5 13.0383C10.4036 13.0383 8.69731 11.3326 8.69731 9.23565C8.69731 7.13873 10.4036 5.43295 12.5 5.43295C14.5964 5.43295 16.3027 7.13873 16.3027 9.23565C16.3027 11.3326 14.5964 13.0383 12.5 13.0383Z" fill="white"/>
</svg>
