<svg width="56" height="55" viewBox="0 0 56 55" fill="none" xmlns="http://www.w3.org/2000/svg">
<circle cx="28" cy="27.5" r="27.5" fill="#009A93"/>
<path d="M28.5001 14C22.7966 14 18.1567 18.6399 18.1567 24.3433C18.1567 26.2209 18.9988 28.2403 19.0341 28.3255C19.3061 28.9711 19.8427 29.9738 20.2297 30.5615L27.3215 41.307C27.6118 41.7475 28.0413 42 28.5001 42C28.9588 42 29.3884 41.7475 29.6786 41.3076L36.7711 30.5615C37.1587 29.9738 37.6947 28.9711 37.9667 28.3255C38.0019 28.2409 38.8434 26.2216 38.8434 24.3433C38.8434 18.6399 34.2035 14 28.5001 14ZM36.8447 27.8534C36.6019 28.432 36.1024 29.3647 35.755 29.8916L28.6625 40.6377C28.5226 40.8501 28.4782 40.8501 28.3382 40.6377L21.2457 29.8916C20.8983 29.3647 20.3988 28.4314 20.156 27.8528C20.1457 27.8278 19.3736 25.9691 19.3736 24.3433C19.3736 19.311 23.4677 15.2169 28.5001 15.2169C33.5324 15.2169 37.6265 19.311 37.6265 24.3433C37.6265 25.9715 36.8526 27.8351 36.8447 27.8534Z" fill="white"/>
<path d="M28.4998 18.8682C25.4802 18.8682 23.0239 21.325 23.0239 24.344C23.0239 27.3631 25.4802 29.8199 28.4998 29.8199C31.5195 29.8199 33.9757 27.3631 33.9757 24.344C33.9757 21.325 31.5195 18.8682 28.4998 18.8682ZM28.4998 28.6031C26.1519 28.6031 24.2408 26.6926 24.2408 24.344C24.2408 21.9955 26.1519 20.085 28.4998 20.085C30.8477 20.085 32.7588 21.9955 32.7588 24.344C32.7588 26.6926 30.8477 28.6031 28.4998 28.6031Z" fill="white"/>
</svg>
