<svg width="100" height="100" viewBox="0 0 100 100" fill="none" xmlns="http://www.w3.org/2000/svg">
<g clip-path="url(#clip0_124_43)">
<path d="M78.5874 27.0471C78.0384 24.5254 77.2091 22.1317 76.1227 19.9323C75.6821 19.0399 74.6015 18.6739 73.7087 19.1145C72.8163 19.5551 72.4503 20.6362 72.8909 21.5286C73.8474 23.4649 74.579 25.5793 75.0655 27.8143C75.6686 30.5834 75.9745 33.4391 75.9745 36.3014C75.9745 52.9365 65.562 67.8292 49.9988 73.5607C34.4357 67.8294 24.023 52.9365 24.023 36.3014C24.023 33.4395 24.3289 30.5838 24.932 27.8143C26.9644 18.4831 33.2572 11.6048 42.1974 8.94321C51.4486 6.18931 61.6556 8.57271 68.1991 15.0161C68.9083 15.7143 70.0493 15.7055 70.7478 14.9963C71.446 14.287 71.4372 13.1462 70.728 12.4477C63.2624 5.09713 51.6599 2.36549 41.1687 5.48853C30.9326 8.53599 23.7307 16.3934 21.4105 27.0467C20.7525 30.0682 20.4189 33.1817 20.4189 36.301C20.4189 54.6771 32.0668 71.1037 49.4035 77.1759C49.5964 77.2435 49.7978 77.2773 49.9992 77.2773C50.2005 77.2773 50.4021 77.2435 50.5949 77.1759C67.9312 71.1035 79.5792 54.6771 79.5792 36.3008C79.579 33.1813 79.2452 30.0678 78.5874 27.0471Z" fill="#009A93"/>
<path d="M49.9998 20.22C42.3627 20.22 36.1494 26.4335 36.1494 34.0704C36.1494 41.7075 42.3627 47.9209 49.9998 47.9209C57.6369 47.9209 63.8502 41.7077 63.8502 34.0704C63.8502 26.4331 57.6369 20.22 49.9998 20.22ZM49.9998 44.3166C44.35 44.3166 39.7537 39.7204 39.7537 34.0704C39.7537 28.4206 44.35 23.8243 49.9998 23.8243C55.6496 23.8243 60.2459 28.4208 60.2459 34.0704C60.2457 39.72 55.6494 44.3166 49.9998 44.3166Z" fill="#009A93"/>
<path d="M85.7627 87.9163C85.4059 86.987 84.3637 86.5231 83.434 86.88C74.5317 90.2981 62.6579 92.1805 49.9995 92.1805C37.3406 92.1805 25.4662 90.2981 16.5644 86.88C8.32811 83.7173 3.60429 79.5605 3.60429 75.4755C3.60429 70.5165 10.6912 65.4501 22.099 62.2527C23.0576 61.9841 23.6164 60.9894 23.348 60.031C23.0794 59.0728 22.0853 58.513 21.1263 58.782C7.70038 62.5449 0 68.6292 0 75.4755C0 81.2177 5.42382 86.4633 15.2726 90.2449C24.5767 93.8176 36.9097 95.7848 49.9999 95.7848C63.0891 95.7848 75.4215 93.8173 84.7264 90.2446C85.6555 89.8882 86.1196 88.8456 85.7627 87.9163Z" fill="#009A93"/>
<path d="M78.7458 58.7467C77.7872 58.4797 76.7933 59.0406 76.5265 59.9996C76.2595 60.9584 76.8204 61.9519 77.7794 62.2189C89.2624 65.4158 96.396 70.4953 96.396 75.4755C96.396 78.8648 93.1934 81.6501 90.5067 83.3898C89.6712 83.9306 89.4323 85.0466 89.9735 85.8822C90.3186 86.4152 90.8972 86.7052 91.4878 86.7052C91.8233 86.7052 92.163 86.6114 92.4655 86.4154C97.3948 83.2238 100 79.441 100 75.4759C100 68.6045 92.253 62.5068 78.7458 58.7467Z" fill="#009A93"/>
</g>
<defs>
<clipPath id="clip0_124_43">
<rect width="100" height="100" fill="white"/>
</clipPath>
</defs>
</svg>
