<svg width="341" height="341" viewBox="0 0 341 341" fill="none" xmlns="http://www.w3.org/2000/svg">
<mask id="mask0_67_106" style="mask-type:alpha" maskUnits="userSpaceOnUse" x="0" y="0" width="341" height="341">
<path d="M333.381 154.03L304.253 144.4C303.053 138.201 301.423 132.097 299.384 126.17L319.837 103.234L317.839 99.1219C314.381 92.0019 310.371 85.0796 305.931 78.546L303.367 74.7745L273.42 81.008C269.26 76.2272 264.765 71.7396 259.998 67.5794L266.225 37.6328L262.453 35.0685C255.879 30.6014 248.957 26.598 241.864 23.1608L237.758 21.1761L214.836 41.6293C208.896 39.5901 202.792 37.9602 196.606 36.7598L186.976 7.63162L182.428 7.29744C174.53 6.72456 166.482 6.72456 158.585 7.29744L154.036 7.6248L144.406 36.7598C138.227 37.9602 132.116 39.5901 126.176 41.6293L103.241 21.1761L99.1281 23.1744C92.008 26.6321 85.0857 30.6423 78.5521 35.0821L74.7875 37.6464L81.021 67.5931C76.2401 71.7533 71.7526 76.2477 67.5924 81.0148L37.6526 74.7814L35.0883 78.5528C30.6212 85.1273 26.6178 92.0496 23.1805 99.1424L21.1959 103.248L41.6355 126.17C39.5963 132.11 37.9663 138.214 36.766 144.4L7.63775 154.03L7.30357 158.579C7.01713 162.527 6.82617 166.483 6.82617 170.5C6.82617 174.517 7.01713 178.473 7.30357 182.421L7.63093 186.97L36.7591 196.6C37.9595 202.8 39.5895 208.904 41.6286 214.83L21.1755 237.766L23.1737 241.878C26.6315 248.998 30.6416 255.921 35.0814 262.454L37.6458 266.226L67.5924 259.992C71.7526 264.773 76.2469 269.261 81.0141 273.421L74.7875 303.367L78.5589 305.932C85.1334 310.399 92.0557 314.402 99.1485 317.839L103.254 319.824L126.183 299.384C132.123 301.424 138.227 303.054 144.413 304.254L154.043 333.382L158.592 333.71C162.534 333.989 166.489 334.18 170.506 334.18C174.523 334.18 178.479 333.989 182.428 333.703L186.976 333.375L196.606 304.247C202.806 303.047 208.91 301.417 214.836 299.378L237.772 319.831L241.884 317.833C249.004 314.375 255.927 310.365 262.46 305.925L266.232 303.361L259.998 273.414C264.779 269.254 269.267 264.759 273.427 259.992L303.373 266.219L305.938 262.447C310.405 255.873 314.408 248.951 317.845 241.858L319.83 237.752L299.377 214.83C301.416 208.89 303.046 202.779 304.246 196.6L333.375 186.97L333.702 182.421C333.995 178.473 334.186 174.517 334.186 170.5C334.186 166.483 333.995 162.527 333.709 158.579L333.381 154.03ZM320.382 176.897L292.182 186.22L291.513 190.305C290.211 198.373 288.083 206.319 285.205 213.923L283.745 217.783L303.51 239.962C301.552 243.713 299.411 247.402 297.126 250.99L268.162 244.961L265.543 248.166C260.36 254.495 254.515 260.34 248.159 265.544L244.953 268.162L250.989 297.127C247.408 299.405 243.726 301.54 239.961 303.517L217.782 283.739L213.915 285.212C206.345 288.084 198.4 290.198 190.305 291.514L186.219 292.183L176.896 320.383C172.661 320.595 168.331 320.595 164.095 320.383L154.772 292.183L150.687 291.514C142.612 290.212 134.667 288.084 127.076 285.206L123.209 283.739L101.031 303.511C97.2798 301.553 93.5902 299.412 90.0029 297.127L96.0318 268.162L92.8264 265.544C86.4974 260.36 80.6527 254.516 75.449 248.159L72.8301 244.954L43.8656 250.99C41.5877 247.409 39.453 243.726 37.4753 239.962L57.2533 217.783L55.7801 213.916C52.9089 206.346 50.7947 198.401 49.4785 190.305L48.8101 186.22L20.6094 176.897C20.5276 174.783 20.4662 172.648 20.4662 170.5C20.4662 168.352 20.5276 166.217 20.6299 164.103L48.8306 154.78L49.4989 150.695C50.8015 142.62 52.9294 134.675 55.8074 127.084L57.2737 123.217L37.5025 101.038C39.4599 97.2874 41.6013 93.5977 43.8861 90.0104L72.8506 96.0393L75.4695 92.8339C80.6527 86.5049 86.4974 80.6602 92.8537 75.4565L96.059 72.8377L90.0234 43.8731C93.6039 41.5952 97.2867 39.4606 101.051 37.4828L123.23 57.254L127.09 55.7945C134.694 52.9164 142.64 50.7954 150.708 49.486L154.793 48.8176L164.116 20.6169C168.351 20.4055 172.682 20.4055 176.917 20.6169L186.24 48.8176L190.325 49.486C198.4 50.7886 206.345 52.9164 213.936 55.7945L217.803 57.2608L239.982 37.4896C243.732 39.4469 247.422 41.5884 251.009 43.8731L244.981 72.8377L248.186 75.4565C254.515 80.6397 260.36 86.4845 265.563 92.8407L268.182 96.0461L297.147 90.0104C299.425 93.5909 301.559 97.2737 303.537 101.038L283.759 123.217L285.232 127.084C288.103 134.654 290.218 142.599 291.534 150.695L292.202 154.78L320.403 164.103C320.485 166.217 320.546 168.352 320.546 170.5C320.546 172.648 320.485 174.783 320.382 176.897Z" fill="#5FBFBA" fill-opacity="0.63"/>
<path d="M168.519 75.0473C133.13 76.0499 103.443 105.655 102.344 141.044C101.69 161.648 110.269 181.214 125.86 194.711C136.895 204.259 143.224 217.633 143.224 231.88V238.7V265.98H163.684V279.62H177.324V265.98H197.784V238.236V231.416C197.784 217.776 204.242 204.28 215.509 194.397C230.254 181.453 238.704 162.807 238.704 143.22C238.704 124.629 231.365 107.265 218.032 94.307C204.706 81.3558 187.069 74.7132 168.519 75.0473ZM184.144 252.34H156.864V238.7H184.144V252.34ZM206.513 184.14C194.101 195.038 186.305 209.551 184.532 225.06H177.324V159.684L195.785 141.222L186.142 131.578L170.504 147.217L154.865 131.578L145.222 141.222L163.684 159.684V225.06H156.523C154.852 209.64 147.138 195.086 134.78 184.399C122.307 173.596 115.453 157.951 115.971 141.467C116.851 113.164 140.591 89.4853 168.901 88.6873C183.823 88.1758 197.859 93.7205 208.525 104.087C219.192 114.453 225.064 128.346 225.064 143.22C225.064 158.879 218.305 173.794 206.513 184.14Z" fill="#5FBFBA" fill-opacity="0.63"/>
</mask>
<g mask="url(#mask0_67_106)">
<rect x="-694" y="76" width="923" height="596" fill="#5FBFBA" fill-opacity="0.78"/>
</g>
</svg>
